<?xml version="1.0" standalone="no"?>
<!DOCTYPE svg PUBLIC "-//W3C//DTD SVG 20010904//EN"
 "http://www.w3.org/TR/2001/REC-SVG-20010904/DTD/svg10.dtd">
<svg version="1.0" xmlns="http://www.w3.org/2000/svg"
 width="3072.000000pt" height="3072.000000pt" viewBox="0 0 3072.000000 3072.000000"
 preserveAspectRatio="xMidYMid meet">
<metadata>
Created by potrace 1.11, written by Peter Selinger 2001-2013
</metadata>
<g transform="translate(0.000000,3072.000000) scale(0.100000,-0.100000)"
fill="#000000" stroke="none">
<path d="M15344 30391 c-5 -5 -130 -70 -279 -146 -148 -76 -292 -150 -320
-165 -27 -15 -149 -78 -270 -140 -121 -62 -233 -120 -250 -130 -16 -9 -127
-67 -245 -128 -118 -60 -288 -149 -378 -196 -90 -47 -165 -86 -167 -86 -2 0
-84 -42 -182 -93 -165 -87 -401 -209 -768 -397 -82 -43 -206 -106 -275 -142
-69 -36 -224 -116 -345 -178 -121 -62 -251 -129 -290 -150 -38 -21 -173 -90
-300 -155 -126 -65 -243 -125 -260 -135 -16 -9 -124 -66 -240 -125 -115 -59
-257 -133 -315 -163 -105 -55 -201 -105 -465 -242 -77 -40 -196 -102 -265
-138 -69 -35 -228 -118 -355 -182 -126 -65 -282 -145 -345 -177 -63 -33 -218
-113 -345 -178 -126 -64 -252 -130 -280 -145 -27 -15 -158 -82 -290 -150 -132
-67 -253 -130 -270 -140 -16 -10 -136 -71 -265 -138 -129 -66 -273 -140 -320
-165 -47 -24 -148 -77 -225 -117 -302 -157 -386 -200 -540 -280 -88 -45 -225
-116 -305 -158 -172 -89 -365 -188 -665 -342 -121 -62 -256 -132 -300 -155
-44 -23 -188 -98 -320 -165 -132 -68 -244 -126 -250 -130 -5 -4 -122 -65 -260
-135 -137 -70 -254 -131 -260 -135 -5 -4 -122 -65 -260 -135 -137 -70 -272
-140 -300 -155 -27 -15 -147 -77 -265 -138 -237 -121 -444 -228 -475 -245 -11
-6 -22 -12 -25 -12 -3 0 -39 -19 -81 -43 -42 -23 -80 -42 -85 -42 -5 0 -36
-16 -69 -35 l-60 -35 12850 1 c12014 1 12848 2 12815 17 -19 10 -42 21 -50 27
-8 5 -17 10 -20 10 -5 1 -48 23 -205 105 -49 26 -180 93 -290 150 -110 56
-245 126 -300 155 -55 29 -170 89 -255 133 -439 226 -780 402 -905 467 -77 40
-221 114 -320 165 -420 217 -496 255 -605 312 -63 33 -198 103 -300 155 -102
53 -216 112 -255 133 -38 21 -160 84 -270 140 -110 57 -245 126 -300 155 -55
29 -174 91 -265 137 -283 146 -460 238 -585 303 -66 34 -228 117 -360 185
-132 67 -298 153 -370 190 -71 37 -202 105 -290 150 -88 46 -209 108 -270 140
-104 55 -211 110 -530 275 -77 40 -261 135 -410 212 -148 77 -340 176 -425
221 -85 44 -218 112 -295 152 -77 40 -216 112 -310 160 -477 246 -505 260
-955 492 -85 44 -209 109 -275 143 -66 34 -192 100 -280 145 -88 46 -209 108
-270 140 -60 32 -249 129 -420 217 -170 88 -382 198 -470 243 -88 46 -232 120
-320 165 -88 45 -209 108 -270 140 -60 32 -182 95 -270 140 -88 45 -223 115
-300 155 -77 40 -203 105 -280 145 -77 40 -228 118 -336 173 -112 58 -199 98
-205 93z m293 -320 c147 -76 313 -162 368 -191 55 -28 199 -103 320 -165 121
-62 265 -137 320 -166 55 -29 174 -91 265 -137 154 -79 213 -110 250 -131 8
-4 51 -26 95 -48 202 -102 561 -287 570 -293 6 -4 87 -47 180 -94 94 -48 213
-110 265 -137 52 -28 169 -88 260 -135 91 -46 198 -101 238 -123 39 -21 72
-36 72 -33 0 3 8 -1 18 -10 9 -8 42 -27 72 -42 30 -16 107 -55 170 -87 63 -33
122 -63 130 -68 8 -5 34 -19 57 -30 23 -11 52 -25 65 -32 13 -7 30 -16 38 -20
8 -4 105 -53 215 -109 110 -56 207 -108 215 -114 8 -7 31 -19 50 -27 19 -7 89
-42 155 -77 66 -34 154 -79 195 -99 41 -20 77 -39 80 -42 3 -3 70 -39 150 -80
267 -136 555 -284 600 -309 25 -14 77 -40 115 -59 39 -19 77 -38 85 -43 8 -5
74 -39 145 -75 72 -37 159 -83 195 -103 36 -20 71 -37 78 -38 7 -2 18 -7 25
-12 11 -9 168 -92 357 -188 36 -18 76 -40 90 -48 14 -8 39 -21 55 -29 17 -8
48 -23 70 -35 22 -11 51 -26 65 -32 14 -6 45 -22 70 -36 25 -14 128 -68 230
-120 330 -169 622 -319 745 -383 66 -35 217 -112 335 -173 246 -126 360 -187
378 -201 6 -5 12 -6 12 -2 0 4 6 3 13 -3 6 -6 102 -56 212 -112 110 -56 223
-115 252 -131 29 -16 159 -83 290 -150 131 -67 243 -125 248 -129 6 -4 109
-58 230 -120 121 -62 281 -144 355 -183 74 -38 144 -75 155 -80 11 -6 27 -14
35 -18 8 -4 53 -27 100 -51 47 -23 153 -78 235 -121 83 -43 258 -133 390 -201
132 -68 281 -145 330 -171 50 -26 113 -58 140 -72 28 -14 57 -29 65 -34 8 -4
96 -49 195 -100 99 -50 184 -95 189 -100 6 -5 -5162 -9 -12175 -9 l-12184 1
95 49 c52 28 104 53 115 56 11 4 36 17 55 29 19 12 121 66 225 120 105 53 196
102 203 107 6 6 12 8 12 5 0 -3 32 12 70 34 39 22 81 44 93 49 12 6 87 44 167
86 80 42 199 104 265 137 66 34 122 65 123 69 2 5 9 8 17 8 7 0 50 21 96 46
46 26 118 63 159 84 41 20 174 89 295 152 121 63 281 145 355 182 74 37 142
74 151 82 8 8 19 14 24 14 10 0 258 123 265 131 3 4 15 9 28 13 12 4 22 12 22
17 0 5 6 9 14 9 8 0 40 14 72 31 58 30 173 90 539 279 99 51 225 116 280 145
56 28 122 64 148 79 26 15 47 25 47 22 0 -4 17 4 38 17 50 31 656 347 872 454
52 26 97 50 100 53 3 3 84 46 180 95 96 49 227 116 290 149 283 147 459 237
509 261 30 14 77 39 103 55 27 17 52 30 57 30 4 0 41 18 82 41 41 23 79 42 84
43 6 1 19 7 30 13 11 6 74 39 140 73 66 35 135 71 153 82 17 11 32 17 32 14 0
-4 17 4 38 17 20 13 125 69 232 124 107 55 209 107 225 116 17 9 44 22 60 30
39 18 99 51 105 57 3 3 30 16 60 30 30 13 62 29 70 35 13 10 113 62 233 122
17 9 43 22 57 30 14 7 68 35 120 62 52 27 145 76 207 108 61 32 167 87 235
122 67 35 182 94 253 131 72 37 229 118 350 180 121 62 225 116 230 120 6 3
26 13 45 20 19 7 42 19 50 25 8 7 110 61 225 120 382 196 649 334 715 369 36
19 108 55 160 81 52 25 102 50 110 55 8 5 58 32 110 59 128 65 164 85 170 91
3 3 68 36 145 74 77 39 146 74 154 80 7 6 18 11 25 12 6 1 48 23 93 48 107 59
276 144 284 142 4 0 15 6 25 15 11 9 73 44 139 77 66 33 149 77 185 96 36 20
72 38 80 42 8 3 38 18 65 32 212 111 312 161 322 161 7 1 133 -61 280 -138z"/>
<path d="M2191 23426 c7 -7 450 -260 624 -356 94 -51 274 -153 400 -226 127
-72 302 -171 390 -219 148 -81 561 -314 595 -335 8 -5 29 -16 45 -25 17 -8 37
-19 45 -25 28 -18 340 -190 345 -190 4 0 129 -70 278 -157 150 -86 295 -167
322 -181 28 -14 205 -114 395 -222 190 -109 415 -236 500 -282 85 -47 281
-157 435 -245 154 -88 332 -188 395 -223 63 -34 185 -103 271 -152 86 -48 161
-88 168 -88 6 0 11 -4 11 -9 0 -5 16 -15 35 -21 19 -6 35 -15 35 -20 0 -4 11
-11 24 -14 14 -3 31 -12 38 -19 7 -6 31 -21 53 -33 62 -33 153 -83 225 -124
36 -21 75 -41 88 -44 12 -4 22 -12 22 -17 0 -5 5 -9 12 -9 6 0 156 -83 333
-185 178 -102 325 -185 329 -185 4 0 179 -98 389 -218 210 -120 454 -258 542
-306 88 -49 310 -174 492 -277 183 -104 335 -189 338 -189 3 0 54 -28 112 -61
58 -34 127 -72 152 -85 25 -14 53 -29 61 -34 66 -41 600 -340 607 -340 2 0
140 -78 306 -174 166 -95 343 -195 392 -221 50 -27 227 -127 395 -223 168 -96
314 -178 325 -183 11 -5 27 -13 35 -19 25 -16 311 -174 370 -204 30 -16 153
-86 275 -155 121 -70 285 -163 365 -206 80 -43 264 -147 410 -230 146 -83 317
-180 380 -214 63 -35 270 -152 459 -259 l344 -196 66 35 c36 19 188 105 336
191 149 85 320 181 380 213 61 31 218 119 350 195 132 75 326 184 430 241 239
131 887 496 1397 787 215 122 410 231 432 241 23 10 161 88 308 173 147 85
313 179 368 209 55 30 167 92 248 137 81 46 289 162 462 259 351 195 896 502
1503 847 221 125 427 240 457 255 30 15 209 116 398 225 189 108 356 202 373
208 16 5 29 14 29 19 0 5 4 8 8 6 4 -1 115 59 247 134 132 75 344 194 470 264
230 128 704 395 1323 746 180 102 408 230 507 284 99 54 302 168 450 253 149
85 284 161 300 169 17 7 37 17 45 22 25 16 540 306 615 347 224 123 344 191
698 393 216 123 406 229 423 237 26 11 532 300 543 310 2 2 -5921 4 -13164 4
-7243 0 -13166 -2 -13164 -4z m25459 -307 c-281 -160 -445 -254 -470 -270 -8
-5 -51 -28 -95 -50 -44 -22 -100 -53 -125 -68 -25 -15 -76 -45 -115 -66 -141
-77 -300 -165 -385 -215 -136 -79 -228 -131 -285 -161 -131 -68 -472 -260
-515 -289 -33 -22 -227 -130 -233 -130 -3 0 -49 -25 -101 -55 -53 -31 -104
-58 -114 -62 -9 -3 -24 -12 -32 -18 -8 -7 -44 -28 -80 -48 -91 -49 -203 -112
-287 -163 -40 -24 -75 -44 -77 -44 -2 0 -35 -19 -72 -42 -38 -23 -96 -55 -129
-71 -75 -36 -77 -37 -435 -244 -162 -94 -317 -182 -345 -195 -48 -24 -253
-138 -285 -158 -8 -6 -26 -16 -40 -22 -14 -7 -27 -15 -30 -18 -3 -3 -34 -21
-70 -40 -36 -19 -83 -44 -105 -57 -22 -12 -47 -26 -55 -29 -8 -4 -22 -13 -30
-19 -8 -7 -46 -29 -84 -49 -38 -20 -74 -40 -80 -45 -6 -5 -60 -34 -119 -65
-92 -48 -357 -195 -407 -226 -76 -47 -362 -210 -369 -210 -5 0 -14 -7 -21 -15
-7 -9 -15 -14 -17 -11 -3 2 -50 -22 -106 -53 -56 -32 -124 -70 -150 -84 -26
-15 -58 -33 -70 -41 -12 -7 -47 -27 -77 -43 -54 -30 -171 -95 -200 -113 -64
-39 -258 -150 -262 -150 -3 0 -53 -27 -111 -60 -59 -33 -109 -60 -113 -60 -4
0 -15 -6 -23 -14 -9 -7 -41 -27 -71 -43 -30 -17 -147 -83 -260 -148 -113 -65
-216 -123 -230 -129 -14 -6 -57 -30 -97 -54 -39 -23 -74 -42 -77 -42 -4 0 -23
-11 -44 -23 -20 -13 -68 -41 -107 -62 -153 -84 -225 -124 -330 -185 -181 -104
-300 -170 -308 -170 -4 0 -24 -11 -45 -23 -20 -13 -66 -40 -102 -59 -36 -20
-119 -67 -185 -105 -66 -39 -140 -81 -165 -95 -25 -14 -81 -47 -125 -73 -44
-26 -98 -56 -120 -65 -22 -10 -110 -58 -195 -107 -85 -49 -162 -92 -170 -96
-8 -4 -28 -16 -45 -26 -53 -33 -364 -211 -369 -211 -2 0 -35 -18 -73 -39 -38
-21 -93 -52 -123 -69 -30 -16 -104 -58 -165 -92 -60 -35 -171 -98 -245 -140
-147 -84 -288 -163 -390 -218 -103 -55 -298 -165 -520 -292 -192 -110 -308
-173 -320 -175 -3 0 -21 -10 -41 -23 -20 -12 -40 -22 -44 -22 -5 0 -16 -6 -24
-14 -9 -7 -45 -29 -81 -48 -36 -19 -76 -41 -90 -50 -14 -9 -44 -26 -67 -39
-22 -13 -92 -53 -155 -89 -62 -36 -117 -67 -123 -69 -5 -2 -17 -10 -26 -18
-33 -28 -46 -23 -269 107 -27 16 -144 82 -190 108 -25 14 -97 54 -160 90 -63
36 -129 73 -145 82 -17 9 -68 37 -115 62 -47 25 -107 59 -135 77 -27 17 -60
35 -72 40 -12 6 -41 23 -65 38 -24 15 -59 36 -78 46 -82 44 -237 131 -260 146
-14 9 -72 41 -130 70 -58 30 -112 59 -120 66 -8 6 -23 15 -32 18 -9 3 -36 18
-60 33 -24 15 -68 41 -98 57 -30 16 -62 35 -70 42 -8 6 -23 15 -32 18 -10 4
-43 22 -73 42 -31 19 -59 35 -63 35 -4 0 -19 8 -32 17 -14 10 -29 18 -35 19
-5 1 -71 36 -145 78 -74 42 -143 81 -152 86 -10 6 -26 15 -35 20 -10 6 -31 17
-48 24 -32 15 -109 59 -153 88 -15 10 -40 24 -57 33 -16 8 -48 26 -70 40 -22
13 -47 27 -55 31 -18 9 -596 332 -684 383 -23 12 -117 67 -211 121 -93 53
-199 113 -235 132 -113 60 -197 107 -252 139 -29 18 -78 45 -108 62 -30 17
-67 38 -82 49 -14 10 -28 18 -31 18 -3 0 -44 23 -92 50 -48 28 -88 50 -91 50
-2 0 -51 27 -108 60 -57 33 -114 64 -127 70 -13 5 -31 14 -39 20 -8 5 -76 43
-150 85 -74 42 -142 80 -150 85 -25 15 -141 81 -198 112 -29 16 -101 57 -160
90 -59 34 -154 86 -212 116 -58 30 -129 70 -158 89 -29 18 -54 33 -57 33 -2 0
-28 14 -57 31 -29 18 -69 41 -88 51 -19 11 -95 54 -168 97 -184 105 -205 117
-307 171 -49 26 -117 63 -150 82 -119 69 -331 191 -375 215 -25 14 -74 42
-110 63 -36 20 -78 43 -95 51 -16 8 -97 53 -178 99 -82 47 -172 98 -200 114
-29 15 -63 36 -77 44 -14 9 -31 17 -39 18 -8 2 -27 12 -42 23 -16 12 -31 21
-34 21 -6 0 -180 100 -220 126 -14 9 -25 14 -25 11 0 -3 -35 15 -77 40 -43 25
-112 64 -153 85 -41 22 -80 45 -87 50 -7 5 -27 18 -45 27 -18 10 -55 30 -83
46 -27 15 -133 75 -235 133 -102 57 -204 115 -228 129 -24 13 -75 42 -115 63
-40 21 -112 61 -162 90 -108 63 -95 56 -372 213 -122 69 -252 142 -290 162
-37 19 -75 39 -83 44 -28 18 -302 175 -470 271 -8 5 -33 17 -55 28 -22 11 -58
30 -80 42 -22 13 -68 38 -101 56 -34 18 -83 47 -110 63 -27 16 -79 45 -115 64
-56 29 -266 148 -368 208 -16 10 -59 34 -97 54 -142 77 -249 136 -264 145 -8
5 -41 24 -73 42 -33 18 -75 43 -95 55 -21 12 -46 26 -57 31 -11 6 -56 31 -100
58 -44 26 -114 65 -155 87 -41 22 -82 45 -90 51 -8 6 -42 25 -75 41 -33 17
-62 33 -65 36 -3 3 -14 11 -25 17 -15 9 3171 11 12540 12 l12560 0 -265 -151z"/>
<path d="M28757 23248 c-10 -11 -25 -17 -33 -14 -8 3 -13 2 -10 -2 7 -12 -52
-44 -66 -36 -7 4 -8 3 -4 -4 8 -14 -50 -46 -66 -36 -6 4 -8 3 -5 -4 9 -13
-100 -75 -115 -66 -7 4 -8 3 -4 -4 8 -14 -50 -46 -66 -36 -6 4 -8 3 -5 -3 9
-14 -170 -116 -185 -107 -7 4 -8 3 -4 -4 8 -14 -50 -46 -66 -36 -6 4 -8 3 -5
-3 9 -14 -169 -117 -184 -107 -7 4 -9 3 -6 -3 9 -14 -170 -116 -185 -107 -7 4
-8 3 -4 -4 8 -14 -50 -46 -66 -36 -6 4 -8 3 -5 -3 9 -14 -169 -117 -184 -107
-7 4 -9 3 -6 -3 5 -8 -525 -326 -671 -402 -15 -8 -33 -20 -40 -28 -7 -7 -20
-13 -28 -13 -8 0 -14 -4 -14 -9 0 -5 -15 -14 -32 -22 -18 -7 -35 -16 -38 -20
-3 -3 -104 -64 -225 -134 -451 -262 -1554 -900 -1945 -1126 -223 -128 -406
-237 -408 -241 -2 -4 -9 -8 -16 -8 -7 0 -23 -9 -36 -20 -13 -11 -34 -23 -47
-26 -13 -4 -23 -9 -23 -13 0 -8 -51 -34 -59 -31 -2 1 -7 -3 -10 -9 -4 -5 -609
-359 -1346 -785 -737 -426 -1344 -778 -1350 -783 -5 -4 -21 -14 -35 -20 -36
-18 -64 -37 -72 -48 -4 -5 -8 -6 -8 -2 0 5 -7 1 -16 -7 -8 -9 -22 -16 -30 -16
-8 0 -14 -5 -14 -12 0 -6 -3 -9 -6 -5 -3 3 -15 -3 -27 -13 -11 -11 -24 -17
-29 -14 -4 3 -8 1 -8 -4 0 -8 -39 -31 -50 -28 -3 0 -16 -9 -30 -21 -21 -21
-35 -27 -42 -21 -2 1 -12 -6 -23 -15 -11 -9 -24 -17 -29 -16 -5 0 -12 -4 -15
-9 -4 -6 -231 -141 -506 -300 -275 -159 -864 -499 -1310 -757 -445 -257 -812
-472 -813 -477 -2 -4 -8 -6 -13 -2 -5 3 -9 0 -9 -5 0 -6 -6 -11 -13 -11 -8 0
-24 -9 -37 -20 -13 -11 -28 -20 -35 -20 -7 0 -22 -9 -35 -20 -13 -11 -29 -20
-37 -20 -7 0 -13 -5 -13 -11 0 -5 -4 -7 -10 -4 -5 3 -10 2 -10 -4 0 -6 -11
-13 -25 -17 -14 -3 -25 -9 -25 -13 0 -7 -36 -27 -53 -29 -4 -1 -17 -11 -29
-22 -20 -18 -27 -21 -44 -19 -4 0 -10 -4 -13 -9 -16 -25 -940 -554 -953 -546
-6 4 -8 3 -5 -3 8 -13 -50 -46 -65 -37 -6 4 -8 3 -5 -3 9 -14 -170 -116 -185
-107 -6 4 -8 3 -5 -3 9 -14 -240 -156 -255 -147 -6 4 -8 3 -5 -3 9 -14 -170
-116 -185 -107 -7 4 -8 3 -4 -4 8 -14 -50 -46 -66 -36 -6 4 -8 3 -5 -3 9 -14
-170 -116 -185 -107 -6 4 -8 3 -5 -3 4 -6 -56 -46 -138 -94 l-145 -83 0 -7655
c0 -4210 4 -7651 8 -7645 5 5 937 1618 2072 3584 1135 1966 2355 4079 2710
4695 356 616 841 1455 1077 1865 237 410 2002 3467 3922 6794 1923 3330 3490
6054 3487 6062 -7 18 -17 17 -39 -8z m-413 -475 c-21 -38 -42 -75 -48 -83 -7
-8 -22 -35 -35 -60 -13 -25 -30 -52 -37 -61 -8 -8 -14 -19 -14 -23 0 -4 -55
-103 -123 -219 -133 -229 -413 -712 -427 -737 -4 -8 -27 -46 -49 -83 -23 -38
-41 -70 -41 -72 0 -4 -321 -562 -394 -685 -18 -30 -70 -120 -116 -200 -46 -80
-113 -197 -150 -260 -37 -63 -91 -157 -121 -209 -30 -52 -64 -110 -76 -130
-12 -20 -29 -49 -38 -66 -8 -16 -19 -37 -24 -45 -9 -13 -84 -143 -131 -225 -9
-16 -52 -91 -95 -165 -176 -305 -230 -397 -257 -445 -16 -27 -33 -57 -38 -65
-4 -8 -31 -53 -58 -100 -102 -177 -153 -265 -162 -280 -5 -8 -62 -107 -126
-220 -64 -113 -138 -241 -164 -285 -26 -44 -75 -129 -110 -190 -34 -60 -71
-122 -81 -137 -11 -15 -19 -30 -19 -33 0 -3 -21 -41 -47 -85 -27 -44 -55 -93
-63 -108 -8 -16 -60 -106 -115 -201 -55 -95 -108 -187 -118 -204 -38 -65 -158
-272 -167 -287 -24 -39 -156 -271 -183 -320 -16 -30 -33 -59 -37 -65 -8 -9
-200 -343 -257 -445 -14 -25 -32 -52 -39 -61 -8 -8 -14 -19 -14 -23 0 -5 -24
-49 -54 -99 -29 -51 -64 -110 -77 -132 -47 -83 -124 -217 -134 -233 -6 -9 -37
-64 -69 -122 -33 -58 -67 -116 -76 -130 -10 -14 -34 -56 -55 -95 -21 -38 -43
-77 -49 -85 -7 -8 -22 -35 -35 -60 -13 -25 -29 -52 -36 -60 -7 -8 -15 -22 -18
-32 -3 -9 -24 -46 -46 -83 -23 -37 -41 -71 -41 -76 0 -5 -4 -9 -10 -9 -5 0
-10 -4 -10 -10 0 -8 -54 -104 -162 -290 -12 -19 -32 -55 -46 -80 -14 -25 -52
-89 -84 -143 -32 -55 -58 -101 -58 -104 0 -3 -13 -25 -30 -50 -16 -24 -30 -46
-30 -49 0 -4 -61 -110 -260 -454 -40 -69 -80 -138 -90 -155 -9 -16 -32 -56
-51 -88 -19 -32 -41 -70 -49 -85 -8 -15 -41 -72 -73 -127 -32 -55 -62 -107
-67 -115 -4 -8 -26 -45 -48 -81 -22 -37 -43 -76 -47 -88 -3 -12 -11 -21 -16
-21 -5 0 -9 -5 -9 -10 0 -6 -50 -97 -111 -203 -62 -106 -146 -250 -187 -322
-41 -71 -99 -173 -129 -225 -31 -52 -67 -115 -81 -140 -14 -25 -43 -73 -64
-108 -21 -34 -38 -64 -38 -67 0 -2 -30 -55 -67 -117 -36 -62 -73 -126 -82
-141 -9 -16 -21 -36 -26 -45 -6 -9 -29 -51 -53 -92 -23 -41 -47 -82 -52 -90
-10 -15 -59 -100 -90 -155 -36 -65 -91 -161 -100 -175 -6 -8 -33 -55 -61 -105
-28 -49 -92 -160 -141 -245 -128 -219 -127 -219 -165 -285 -19 -33 -43 -76
-55 -95 -11 -19 -64 -111 -118 -205 -54 -93 -130 -226 -170 -295 -40 -69 -84
-145 -98 -169 -14 -25 -38 -68 -55 -95 -16 -28 -44 -76 -60 -106 -17 -30 -42
-73 -56 -95 -14 -22 -32 -53 -41 -70 -18 -33 -22 -40 -147 -255 -93 -162 -112
-195 -159 -277 -112 -198 -191 -334 -216 -370 -15 -23 -28 -45 -28 -48 0 -4
-34 -65 -75 -136 -41 -71 -110 -188 -152 -261 -42 -73 -107 -185 -144 -248
-36 -63 -76 -132 -88 -153 -12 -21 -56 -98 -98 -170 -41 -73 -126 -220 -188
-327 -138 -240 -211 -366 -236 -405 -10 -16 -25 -43 -33 -60 -9 -16 -30 -55
-48 -85 -64 -108 -153 -264 -192 -334 -22 -39 -42 -73 -45 -76 -3 -3 -15 -21
-25 -40 -27 -51 -248 -434 -409 -710 -27 -47 -61 -105 -74 -130 -14 -25 -42
-72 -61 -105 -19 -33 -69 -118 -110 -190 -41 -71 -100 -173 -130 -225 -30 -52
-68 -117 -84 -145 -16 -27 -33 -57 -38 -65 -5 -8 -69 -118 -141 -245 -73 -126
-173 -300 -222 -385 -49 -85 -101 -175 -115 -200 -13 -25 -29 -50 -34 -57 -5
-7 -18 -27 -27 -45 -38 -71 -85 -154 -101 -178 -9 -14 -46 -76 -81 -138 -35
-63 -72 -126 -81 -140 -9 -15 -27 -47 -39 -72 -13 -25 -26 -47 -29 -50 -4 -3
-10 -12 -13 -20 -4 -8 -18 -33 -31 -55 -30 -52 -103 -178 -266 -460 -73 -126
-164 -284 -202 -350 -88 -152 -77 -133 -144 -250 -32 -55 -75 -128 -96 -163
-21 -34 -35 -62 -32 -62 4 0 0 -8 -8 -17 -9 -10 -39 -58 -67 -108 -28 -49 -56
-97 -61 -105 -5 -8 -28 -49 -52 -90 -23 -41 -50 -88 -60 -105 -10 -16 -30 -52
-45 -80 l-28 -50 -3 7300 c-1 4015 0 7305 2 7311 4 9 53 39 277 168 20 12 68
39 105 60 62 35 215 124 254 146 98 58 173 102 210 122 25 14 80 46 123 72 43
25 81 46 84 46 3 0 17 8 31 19 15 10 133 79 262 153 129 74 259 149 288 167
29 17 55 31 58 31 2 0 21 11 42 24 20 13 120 72 222 130 102 59 192 111 200
116 8 5 51 30 95 56 44 26 133 79 198 118 186 112 279 166 322 191 58 32 148
84 165 95 18 10 210 122 286 165 29 17 254 147 501 290 246 142 461 266 476
275 16 8 36 20 45 25 117 71 212 125 218 125 4 0 15 6 23 14 9 7 45 29 81 49
36 19 99 55 140 80 41 24 94 55 117 68 22 13 83 48 135 78 51 30 111 64 133
76 22 13 85 50 140 83 55 32 119 70 142 83 23 13 145 85 270 160 125 75 248
148 273 161 25 14 80 46 123 72 43 25 80 46 82 46 3 0 48 26 102 58 54 32 143
84 198 116 55 31 107 61 115 67 8 5 26 14 40 21 14 7 32 17 40 24 8 6 38 24
65 39 84 47 273 157 525 304 19 11 69 39 110 63 41 24 83 47 92 53 20 12 145
84 213 123 28 16 122 71 210 122 88 51 225 131 305 177 80 46 152 88 160 93 8
5 47 28 85 51 39 22 82 48 96 57 64 41 168 102 175 102 4 0 15 6 23 14 9 7 36
25 61 38 25 14 80 46 123 72 43 25 82 46 86 46 5 0 19 8 32 19 13 10 47 30 74
45 28 15 68 38 90 52 22 13 51 30 65 37 14 6 27 14 30 17 3 3 77 47 165 97
181 103 218 124 620 358 160 92 347 201 416 241 70 40 157 91 194 113 37 23
69 41 71 41 3 0 159 90 244 140 8 5 57 34 108 65 51 30 95 55 97 55 2 0 30 17
62 38 79 50 115 72 238 142 92 53 437 252 540 312 66 39 163 95 215 125 52 30
102 58 110 63 17 11 93 54 165 95 28 15 67 39 87 52 21 12 40 23 42 23 3 0 22
11 42 25 20 14 39 25 41 25 2 0 -13 -30 -33 -67z"/>
<path d="M1912 23243 c5 -18 13264 -22990 13280 -23007 4 -6 8 3435 8 7646 l0
7655 -170 98 c-93 54 -170 101 -170 106 0 5 -4 8 -8 6 -13 -3 -182 93 -182
104 0 5 -3 8 -7 8 -19 -3 -31 2 -53 24 -14 12 -26 21 -27 20 -8 -7 -21 -1 -41
17 -12 12 -22 18 -22 15 0 -3 -13 2 -30 12 -16 9 -30 21 -30 26 0 4 -4 6 -10
2 -5 -3 -18 3 -29 14 -11 11 -22 17 -25 14 -3 -4 -6 -1 -6 6 0 7 -4 10 -8 7
-5 -3 -18 3 -29 14 -12 10 -24 16 -27 13 -3 -4 -6 -1 -6 6 0 7 -4 10 -8 7 -5
-3 -19 4 -30 15 -12 11 -22 17 -22 14 0 -3 -10 3 -22 14 -11 11 -25 18 -30 15
-4 -3 -8 -1 -8 4 0 9 -50 37 -62 34 -5 -1 -8 2 -8 6 0 8 -51 36 -59 32 -2 -1
-7 3 -10 8 -3 5 -499 294 -1101 642 -1580 914 -1623 939 -1631 952 -3 5 -9 9
-13 9 -17 -2 -24 1 -46 22 -14 12 -27 21 -30 21 -10 -2 -50 19 -50 28 0 4 -3
7 -7 6 -12 -2 -63 24 -63 33 0 4 -11 10 -25 13 -14 4 -25 10 -25 15 0 5 -16
15 -35 21 -19 6 -35 15 -35 20 0 5 -16 14 -35 20 -19 6 -35 15 -35 19 0 8 -38
28 -54 29 -5 0 -12 4 -15 10 -3 5 -460 271 -1016 592 -1036 598 -1578 912
-1675 970 -30 18 -82 49 -115 68 -33 20 -62 38 -65 42 -3 3 -16 11 -30 18 -87
45 -106 55 -110 61 -3 3 -16 12 -30 19 -57 29 -85 45 -90 51 -3 4 -52 34 -110
67 -1850 1068 -2577 1489 -2585 1498 -6 6 -17 12 -25 14 -21 5 -183 103 -192
116 -4 6 -8 7 -8 2 0 -5 -10 0 -23 12 -13 12 -27 19 -30 15 -4 -3 -7 -1 -7 6
0 7 -4 10 -9 7 -4 -3 -16 3 -26 14 -10 11 -22 17 -26 14 -5 -3 -9 -1 -9 3 0
11 -60 47 -60 36 0 -4 -4 -3 -8 4 -4 6 -455 270 -1002 586 -1559 901 -1655
957 -1658 967 -2 6 -8 8 -13 4 -5 -3 -9 0 -9 5 0 6 -5 11 -11 11 -6 0 -9 -8
-7 -17z m548 -492 c14 -9 34 -21 45 -27 11 -6 47 -27 80 -46 75 -44 312 -181
384 -222 29 -17 70 -41 90 -52 20 -12 52 -30 71 -41 37 -20 316 -183 378 -220
21 -12 48 -27 61 -33 13 -6 44 -24 68 -40 24 -17 46 -30 49 -30 3 0 49 -25
102 -56 242 -141 340 -198 382 -222 160 -90 336 -195 338 -203 2 -5 10 -9 18
-9 8 0 14 -4 14 -10 0 -5 5 -10 11 -10 11 0 107 -55 161 -92 15 -10 34 -18 43
-18 8 0 15 -3 15 -7 0 -8 23 -22 120 -76 30 -17 87 -49 125 -72 87 -52 316
-185 353 -205 28 -15 144 -83 172 -100 8 -5 41 -24 73 -42 32 -18 66 -38 75
-43 9 -6 52 -30 95 -55 43 -25 86 -50 95 -55 10 -6 60 -34 112 -64 52 -29 107
-62 123 -73 15 -11 27 -16 27 -12 0 4 8 0 18 -8 9 -8 75 -48 145 -89 71 -41
145 -84 165 -96 20 -12 44 -25 52 -29 8 -4 69 -39 135 -77 66 -39 160 -93 208
-121 49 -28 96 -56 105 -61 9 -6 51 -29 92 -53 41 -23 82 -47 90 -52 30 -18
256 -149 305 -175 28 -16 79 -46 115 -68 36 -22 103 -62 150 -90 186 -110 298
-175 353 -208 32 -19 84 -49 115 -68 31 -18 72 -42 89 -52 18 -10 119 -69 225
-130 466 -271 681 -395 706 -409 70 -39 178 -102 192 -110 15 -10 95 -56 165
-95 22 -13 123 -71 225 -130 102 -59 201 -116 220 -127 41 -23 266 -154 313
-182 18 -10 57 -32 87 -49 30 -16 60 -33 65 -37 6 -4 28 -18 50 -30 115 -64
204 -117 239 -142 21 -15 45 -28 52 -28 7 0 14 -4 16 -8 2 -4 26 -21 53 -36
113 -64 142 -81 192 -113 29 -18 54 -33 56 -33 3 0 67 -37 143 -81 77 -45 159
-93 184 -107 25 -14 78 -45 119 -69 41 -25 90 -54 110 -65 20 -11 70 -40 111
-65 41 -24 82 -48 90 -53 8 -5 85 -49 170 -97 85 -48 156 -91 158 -95 2 -5 8
-8 13 -8 6 0 49 -23 97 -52 48 -28 112 -64 142 -81 30 -16 62 -35 70 -41 8 -6
35 -22 60 -35 25 -13 52 -29 60 -36 8 -6 26 -16 40 -23 14 -7 32 -16 40 -22
29 -18 152 -90 155 -90 2 0 97 -55 212 -121 114 -67 233 -135 263 -152 30 -17
95 -55 144 -84 49 -29 90 -53 91 -53 2 0 39 -21 82 -47 43 -25 103 -60 133
-76 30 -16 75 -43 100 -60 41 -27 374 -225 480 -285 25 -14 62 -36 82 -49 21
-12 40 -23 42 -23 5 0 165 -92 216 -125 19 -12 95 -55 167 -96 l133 -74 0
-7310 c0 -5851 -2 -7305 -12 -7290 -47 75 -318 545 -318 552 0 3 -6 14 -14 22
-7 9 -25 36 -38 61 -14 25 -66 116 -117 203 -50 86 -91 161 -91 166 0 5 -4 11
-8 13 -5 2 -31 44 -59 93 -45 80 -94 165 -345 598 -37 66 -68 122 -68 126 0 4
-6 13 -12 19 -7 7 -29 41 -48 76 -19 35 -62 110 -95 167 -33 57 -67 116 -75
130 -12 23 -88 153 -210 364 -9 17 -34 59 -54 95 -21 36 -41 72 -46 80 -49 83
-223 383 -238 410 -11 19 -61 107 -112 195 -88 151 -135 233 -309 535 -39 69
-76 132 -81 140 -5 8 -29 49 -52 90 -51 88 -43 75 -141 244 -43 74 -83 145
-90 158 -7 13 -19 34 -28 48 -45 70 -129 219 -129 227 0 5 -5 14 -12 21 -7 7
-26 36 -43 66 -16 30 -46 83 -66 118 -20 35 -46 80 -57 100 -12 20 -32 54 -45
75 -13 21 -37 63 -54 93 -17 30 -62 110 -102 177 -39 67 -71 125 -71 129 0 4
-6 15 -14 23 -8 9 -27 39 -42 67 -91 162 -119 212 -134 234 -9 14 -32 52 -50
85 -59 106 -166 291 -307 532 -46 78 -83 146 -83 152 0 6 -4 11 -9 11 -5 0
-16 17 -25 38 -9 20 -29 58 -45 84 -16 25 -40 66 -54 90 -42 75 -99 172 -115
198 -9 14 -17 27 -17 30 0 4 -122 216 -155 270 -5 8 -29 49 -52 90 -24 41 -48
84 -55 95 -7 11 -19 34 -27 50 -8 17 -18 34 -23 38 -4 5 -24 37 -43 72 -36 65
-193 336 -337 583 -46 78 -83 144 -83 147 0 2 -24 43 -53 92 -30 48 -67 113
-83 143 -16 30 -32 57 -35 60 -3 3 -26 41 -51 85 -24 44 -87 154 -140 245 -52
91 -137 237 -187 325 -50 88 -96 167 -101 175 -15 25 -274 472 -290 501 -8 14
-24 44 -36 65 -12 22 -42 73 -67 114 -25 41 -58 98 -74 126 -15 29 -44 78 -63
110 -19 33 -44 76 -55 97 -45 83 -209 363 -224 381 -9 10 -15 20 -13 22 1 2
-22 46 -52 97 -29 50 -63 108 -74 127 -11 19 -43 75 -71 123 -28 49 -51 93
-51 98 0 5 -4 9 -9 9 -5 0 -11 8 -14 18 -4 9 -17 35 -29 57 -54 94 -140 241
-148 255 -5 8 -41 71 -81 140 -39 69 -95 166 -124 215 -177 303 -225 386 -225
390 0 3 -17 33 -38 67 -21 35 -50 83 -64 108 -14 25 -75 131 -136 235 -188
326 -248 429 -255 445 -5 8 -18 31 -30 52 -12 20 -39 67 -61 105 -21 37 -51
88 -66 113 -15 25 -129 223 -254 440 -125 217 -231 402 -236 410 -38 62 -290
501 -290 505 0 2 -13 23 -29 47 -15 24 -42 68 -58 98 -35 65 -89 159 -103 180
-6 8 -15 26 -22 40 -7 14 -17 32 -24 40 -6 8 -22 35 -36 60 -13 25 -31 56 -40
70 -9 14 -29 48 -45 76 -25 47 -179 313 -261 453 -18 31 -39 70 -48 86 -8 17
-30 55 -48 85 -59 99 -172 295 -179 310 -4 8 -16 29 -26 45 -15 24 -187 321
-261 450 -10 17 -49 85 -89 152 -39 68 -71 126 -71 131 0 4 -5 13 -12 20 -7 7
-26 37 -43 67 -16 29 -75 132 -130 227 -55 95 -107 184 -115 199 -8 14 -26 46
-40 70 -13 24 -29 52 -35 61 -61 103 -145 249 -145 254 0 2 -8 17 -19 32 -18
26 -102 171 -153 262 -14 25 -82 143 -152 262 -69 120 -126 222 -126 226 0 4
-5 13 -12 20 -7 7 -26 37 -43 67 -16 30 -75 132 -130 226 -55 95 -107 185
-115 200 -17 32 -139 243 -210 364 -26 44 -59 100 -72 125 -14 25 -65 113
-113 195 -72 123 -254 439 -343 595 -49 87 -153 266 -162 280 -5 8 -37 64 -72
125 -35 60 -68 119 -75 130 -7 11 -15 27 -19 35 -4 8 -10 17 -13 20 -3 3 -15
23 -27 45 -25 47 -31 59 -163 284 -56 96 -109 187 -117 203 l-15 30 48 -28
c26 -15 59 -34 73 -43z"/>
<path d="M1740 15381 l0 -7660 81 -48 c45 -27 109 -63 143 -81 33 -19 68 -39
76 -46 8 -7 22 -16 30 -20 8 -4 33 -18 55 -31 22 -14 52 -30 68 -36 15 -6 27
-15 27 -19 0 -5 16 -14 35 -20 19 -6 35 -15 35 -20 0 -5 10 -12 22 -16 13 -4
25 -10 28 -14 3 -4 36 -24 73 -46 38 -21 82 -47 98 -57 47 -28 34 -21 1436
-832 740 -429 1351 -785 1357 -791 11 -11 19 -14 34 -14 5 0 17 -8 28 -18 10
-10 21 -19 24 -19 19 -4 60 -28 60 -35 0 -5 4 -7 8 -4 5 3 18 -2 28 -12 11 -9
26 -18 34 -20 8 -2 24 -11 35 -20 11 -9 31 -23 44 -30 13 -8 38 -22 55 -32 17
-10 344 -199 726 -420 382 -221 902 -522 1155 -670 253 -147 606 -352 785
-455 179 -104 327 -191 330 -195 3 -3 20 -12 38 -19 17 -8 32 -17 32 -22 0 -5
6 -9 14 -9 8 0 36 -15 62 -33 27 -18 60 -38 74 -45 14 -7 41 -22 61 -35 20
-12 546 -317 1169 -677 622 -360 1148 -665 1168 -677 20 -12 49 -27 65 -34 15
-6 27 -15 27 -19 0 -4 12 -13 28 -19 15 -7 45 -23 67 -36 22 -14 51 -30 65
-37 14 -7 27 -15 30 -19 6 -7 54 -34 93 -51 15 -7 27 -15 27 -19 0 -4 15 -12
33 -20 17 -7 34 -16 37 -19 6 -7 89 -56 184 -109 33 -19 63 -37 66 -40 3 -4
16 -12 30 -19 14 -7 48 -26 75 -43 28 -18 71 -43 97 -58 172 -96 2744 -1586
2748 -1592 3 -4 17 -13 30 -18 14 -6 33 -16 42 -23 22 -16 36 -3 22 20 -6 9
-22 37 -36 62 -38 68 -69 122 -89 155 -10 17 -24 41 -32 55 -7 14 -23 42 -35
63 -12 20 -32 54 -44 75 -12 20 -28 48 -35 62 -8 14 -25 43 -39 65 -13 22 -29
49 -34 60 -5 11 -21 38 -34 60 -14 22 -31 51 -39 65 -7 14 -23 42 -35 63 -39
66 -64 111 -90 157 -13 25 -28 50 -32 55 -4 6 -17 27 -29 48 -35 62 -63 110
-82 142 -10 17 -24 41 -32 55 -7 14 -24 43 -37 65 -13 22 -36 65 -53 95 -16
30 -35 62 -41 70 -6 8 -17 26 -24 39 -8 13 -23 40 -34 60 -12 20 -32 56 -46
81 -13 25 -28 50 -32 55 -4 6 -17 27 -29 47 -35 63 -63 111 -82 143 -10 17
-24 41 -32 55 -7 14 -23 42 -35 62 -12 21 -32 55 -44 75 -12 21 -28 49 -35 63
-8 14 -25 43 -39 65 -13 22 -29 49 -34 60 -5 11 -21 38 -35 60 -13 22 -31 54
-40 70 -8 17 -23 44 -34 60 -20 33 -51 86 -89 155 -13 25 -28 50 -32 55 -4 6
-17 27 -29 48 -12 20 -30 52 -40 71 -11 18 -25 44 -33 57 -7 13 -18 31 -24 39
-6 8 -25 40 -41 70 -17 30 -40 73 -53 95 -13 22 -34 60 -48 85 -13 25 -28 50
-32 55 -8 10 -28 44 -78 135 -13 25 -28 50 -32 55 -4 6 -17 27 -29 47 -12 21
-31 55 -42 75 -12 21 -33 58 -47 83 -13 25 -28 50 -32 55 -4 6 -17 27 -29 48
-35 62 -63 110 -82 142 -10 17 -24 41 -32 55 -7 14 -23 41 -34 61 -12 20 -27
47 -35 60 -7 13 -18 31 -24 39 -6 8 -25 40 -41 70 -17 30 -40 73 -53 95 -13
22 -34 60 -48 85 -13 25 -28 50 -32 55 -4 6 -17 27 -29 48 -12 20 -31 54 -42
75 -12 20 -33 57 -47 82 -13 25 -28 50 -32 55 -4 6 -17 27 -29 48 -12 20 -31
54 -43 75 -12 20 -28 48 -35 62 -8 14 -25 43 -39 65 -13 22 -29 49 -34 60 -5
11 -21 38 -35 60 -13 22 -31 54 -40 70 -8 17 -23 44 -34 60 -20 33 -51 86 -89
155 -13 25 -28 50 -32 55 -9 11 -38 62 -83 145 -16 30 -35 62 -41 70 -6 8 -17
26 -24 39 -28 48 -53 92 -74 129 -12 20 -28 48 -35 62 -8 14 -25 43 -39 65
-13 22 -29 49 -34 60 -5 11 -21 38 -35 60 -13 22 -31 54 -40 70 -8 17 -23 44
-34 60 -20 33 -51 86 -89 155 -13 25 -28 50 -32 55 -4 6 -17 27 -29 47 -35 63
-63 111 -82 143 -20 34 -31 53 -79 140 -18 33 -41 71 -50 85 -9 14 -20 32 -23
40 -4 8 -18 33 -32 55 -14 22 -30 49 -35 60 -5 11 -21 38 -34 60 -14 22 -31
51 -39 65 -7 14 -23 42 -35 63 -32 55 -59 102 -83 145 -12 20 -25 42 -29 47
-4 6 -19 30 -32 55 -14 25 -36 63 -48 85 -13 22 -30 51 -37 65 -8 14 -25 43
-39 65 -13 22 -29 49 -34 60 -5 11 -21 38 -35 60 -13 22 -31 54 -40 70 -8 17
-26 48 -40 70 -14 22 -30 49 -35 60 -5 11 -21 38 -34 60 -14 22 -31 51 -39 65
-7 14 -23 42 -35 63 -32 55 -59 102 -83 145 -12 20 -25 42 -29 47 -7 10 -39
66 -93 165 -16 30 -35 62 -41 70 -6 8 -17 26 -24 39 -39 69 -57 99 -73 126
-10 17 -25 44 -34 60 -8 17 -23 44 -34 60 -20 33 -51 86 -89 155 -13 25 -28
50 -32 55 -4 6 -17 27 -29 48 -12 20 -30 52 -40 71 -11 18 -25 44 -33 57 -7
13 -18 31 -24 39 -6 8 -25 40 -41 70 -34 62 -67 120 -94 165 -10 17 -24 41
-32 55 -7 14 -24 43 -37 65 -13 22 -36 65 -53 95 -16 30 -35 62 -41 70 -6 8
-17 26 -24 39 -8 13 -23 40 -34 60 -12 20 -32 56 -46 81 -13 25 -28 50 -32 55
-4 6 -17 27 -29 48 -35 62 -63 110 -82 142 -10 17 -24 41 -32 55 -7 14 -23 42
-35 63 -12 20 -32 54 -44 75 -12 20 -28 48 -35 62 -8 14 -25 43 -39 65 -13 22
-29 49 -34 60 -5 11 -21 38 -34 60 -14 22 -31 51 -39 65 -7 14 -23 42 -35 63
-21 36 -46 80 -74 128 -7 13 -18 31 -24 39 -6 8 -25 40 -41 70 -34 62 -67 120
-94 165 -10 17 -24 41 -32 55 -7 14 -23 42 -35 63 -12 20 -32 54 -43 75 -12
20 -30 51 -40 67 -10 17 -24 41 -32 55 -7 14 -24 43 -37 65 -12 22 -34 60 -48
85 -13 25 -28 50 -32 55 -9 11 -38 62 -83 145 -16 30 -35 62 -41 70 -6 8 -17
26 -24 39 -28 48 -53 92 -74 129 -12 20 -28 48 -35 62 -8 14 -25 43 -39 65
-13 22 -29 49 -34 60 -5 11 -21 38 -35 60 -13 22 -31 54 -40 70 -8 17 -23 44
-34 60 -20 33 -51 86 -89 155 -13 25 -28 50 -32 55 -4 6 -17 27 -29 48 -12 20
-30 52 -40 71 -11 18 -25 44 -33 57 -7 13 -18 31 -24 39 -6 8 -25 40 -41 70
-34 62 -67 120 -94 165 -10 17 -24 41 -32 55 -7 14 -24 43 -37 65 -12 22 -34
60 -48 85 -13 25 -28 50 -32 55 -4 6 -17 27 -29 48 -12 20 -31 54 -42 75 -12
20 -33 57 -47 82 -13 25 -28 50 -32 55 -4 6 -17 27 -29 48 -12 20 -31 54 -43
75 -12 20 -28 48 -35 62 -8 14 -25 43 -39 65 -13 22 -29 49 -34 60 -5 11 -21
38 -35 60 -14 22 -32 54 -40 70 -9 17 -27 48 -40 70 -14 22 -30 49 -35 60 -5
11 -21 38 -34 60 -14 22 -31 51 -39 65 -7 14 -23 42 -35 63 -12 20 -32 54 -43
75 -12 20 -30 51 -40 67 -10 17 -24 41 -32 55 -7 14 -23 42 -35 63 -12 20 -32
54 -44 75 -12 20 -28 48 -35 62 -8 14 -25 43 -39 65 -13 22 -29 49 -34 60 -5
11 -21 38 -35 60 -14 22 -32 54 -40 70 -9 17 -24 44 -34 60 -21 35 -53 91 -89
155 -13 25 -28 50 -32 55 -4 6 -17 27 -29 48 -35 62 -63 110 -82 142 -10 17
-24 41 -32 55 -7 14 -23 42 -35 63 -12 20 -32 54 -44 75 -12 20 -28 48 -35 62
-8 14 -25 43 -39 65 -13 22 -29 49 -34 60 -5 11 -21 38 -35 60 -13 22 -31 54
-40 70 -8 17 -23 44 -34 60 -20 33 -51 86 -89 155 -13 25 -28 50 -32 55 -4 6
-17 27 -29 48 -12 20 -30 52 -40 71 -11 18 -25 44 -33 57 -7 13 -18 31 -24 39
-6 8 -25 40 -41 70 -34 62 -67 120 -94 165 -10 17 -24 41 -32 55 -7 14 -24 43
-37 65 -12 22 -34 60 -48 85 -13 25 -28 50 -32 55 -4 6 -17 27 -29 48 -12 20
-31 54 -42 75 -12 20 -33 57 -47 82 -13 25 -28 50 -32 55 -4 6 -17 27 -29 48
-35 62 -63 110 -82 142 -10 17 -24 41 -32 55 -7 14 -23 41 -34 61 -12 20 -27
47 -35 60 -7 13 -18 31 -24 39 -6 8 -25 40 -41 70 -17 30 -40 73 -53 95 -13
22 -34 60 -48 85 -13 25 -28 50 -32 55 -4 6 -17 27 -29 48 -12 20 -31 54 -43
75 -12 20 -28 48 -35 62 -8 14 -25 43 -39 65 -13 22 -29 49 -34 60 -5 11 -21
38 -35 60 -14 22 -32 54 -40 70 -9 17 -27 48 -40 70 -14 22 -30 49 -35 60 -5
11 -21 38 -35 60 -13 22 -31 54 -40 70 -8 17 -23 44 -34 60 -20 33 -51 86 -89
155 -13 25 -28 50 -32 55 -4 6 -17 27 -29 48 -35 62 -63 110 -82 142 -10 17
-24 41 -32 55 -7 14 -23 42 -35 63 -12 20 -32 54 -43 75 -12 20 -30 51 -40 67
-10 17 -24 41 -32 55 -7 14 -24 43 -37 65 -13 22 -36 65 -53 95 -16 30 -35 62
-41 70 -6 8 -17 26 -24 39 -8 13 -23 40 -34 60 -12 20 -32 56 -46 81 -13 25
-28 50 -32 55 -4 6 -17 27 -29 48 -35 62 -63 110 -82 142 -10 17 -24 41 -32
55 -7 14 -23 42 -35 63 -12 20 -32 54 -44 75 -12 20 -28 48 -35 62 -8 14 -25
43 -39 65 -13 22 -29 49 -34 60 -5 11 -21 38 -34 60 -14 22 -31 51 -39 65 -7
14 -23 42 -35 63 -21 36 -46 80 -74 128 -7 13 -18 31 -24 39 -6 8 -25 40 -41
70 -17 30 -40 71 -52 90 -11 19 -28 49 -36 65 -9 17 -27 48 -40 70 -14 22 -30
49 -35 60 -5 11 -21 38 -35 60 -13 22 -31 54 -40 70 -8 17 -26 48 -40 70 -14
22 -30 49 -35 60 -5 11 -21 38 -34 60 -14 22 -31 51 -39 65 -7 14 -23 42 -35
63 -39 66 -64 111 -90 157 -13 25 -28 50 -32 55 -4 6 -17 27 -29 48 -12 20
-31 54 -43 75 -12 20 -28 48 -35 62 -8 14 -25 43 -39 65 -13 22 -29 49 -34 60
-5 11 -21 38 -35 60 -13 22 -31 54 -40 70 -8 17 -23 44 -34 60 -20 33 -51 86
-89 155 -13 25 -28 50 -32 55 -4 6 -17 27 -29 48 -12 20 -30 52 -40 71 -11 18
-25 44 -33 57 -7 13 -18 31 -24 39 -6 8 -25 40 -41 70 -35 63 -68 122 -94 165
-10 17 -26 45 -35 63 -9 18 -20 35 -25 38 -5 3 -9 -3258 -9 -7655z m240 6934
c24 -44 50 -88 58 -97 8 -10 11 -18 7 -18 -4 0 -1 -8 7 -17 15 -19 102 -164
103 -173 0 -3 8 -16 17 -30 9 -14 22 -37 29 -52 7 -16 16 -28 21 -28 4 0 8 -4
8 -9 0 -5 23 -49 51 -98 56 -95 68 -117 137 -238 25 -44 52 -91 61 -105 8 -14
16 -27 16 -30 0 -3 12 -23 26 -45 14 -22 49 -83 79 -135 29 -52 60 -103 68
-112 8 -10 12 -18 8 -18 -4 0 5 -16 20 -35 14 -19 23 -35 19 -35 -5 0 -1 -8 7
-17 8 -10 44 -70 80 -133 36 -63 78 -135 92 -160 98 -169 138 -239 172 -300
11 -19 27 -46 35 -60 28 -43 133 -225 134 -230 0 -3 8 -16 17 -30 9 -14 29
-48 45 -76 30 -55 72 -127 138 -239 70 -117 99 -170 100 -175 0 -3 8 -16 16
-30 41 -65 81 -134 135 -230 33 -57 64 -112 69 -122 27 -47 204 -352 246 -423
85 -146 133 -230 134 -235 0 -3 8 -16 17 -30 19 -30 119 -202 145 -250 10 -19
45 -80 77 -135 32 -55 83 -143 114 -195 30 -52 67 -115 82 -140 15 -25 63
-108 106 -185 43 -77 100 -175 126 -218 26 -43 48 -81 48 -83 0 -3 30 -56 67
-117 36 -62 134 -231 218 -377 84 -146 210 -364 280 -485 70 -121 196 -339
280 -485 217 -378 397 -688 427 -735 14 -22 26 -44 28 -50 2 -5 8 -19 15 -30
15 -24 188 -323 220 -380 22 -39 107 -187 147 -255 139 -237 318 -554 318
-561 0 -5 5 -9 10 -9 6 0 10 -6 10 -14 0 -7 7 -19 15 -26 9 -7 13 -15 10 -18
-3 -3 1 -12 9 -21 7 -9 24 -36 38 -61 13 -25 31 -56 39 -70 22 -34 83 -139
389 -670 323 -560 291 -504 330 -575 18 -33 40 -68 48 -77 8 -10 11 -18 7 -18
-4 0 -1 -8 8 -17 8 -10 30 -45 48 -78 17 -33 38 -67 45 -75 7 -8 14 -19 15
-25 1 -5 7 -19 14 -30 7 -11 23 -39 36 -62 13 -22 40 -67 59 -100 19 -32 34
-60 35 -63 0 -3 8 -16 16 -30 64 -101 99 -160 94 -160 -2 0 11 -25 31 -56 19
-30 72 -119 116 -197 44 -78 89 -154 100 -169 11 -16 16 -28 12 -28 -4 0 0 -8
8 -17 8 -10 40 -63 72 -118 31 -55 61 -107 66 -115 17 -28 193 -335 247 -430
30 -52 58 -102 63 -110 5 -8 75 -130 156 -270 80 -140 154 -266 163 -280 17
-28 128 -220 199 -345 24 -44 52 -91 60 -105 9 -14 15 -26 14 -27 -1 -1 14
-26 33 -55 19 -29 35 -56 35 -61 0 -5 12 -25 28 -44 15 -20 26 -39 24 -42 -1
-3 5 -14 13 -24 8 -9 15 -21 15 -27 0 -5 13 -28 29 -52 16 -24 46 -74 66 -113
21 -38 43 -77 49 -85 7 -8 48 -78 91 -155 43 -77 93 -164 112 -192 18 -29 30
-53 26 -53 -3 0 1 -8 9 -17 9 -10 23 -33 33 -52 9 -19 21 -39 26 -45 5 -6 67
-112 138 -236 70 -124 161 -281 201 -350 40 -69 84 -145 98 -170 14 -25 34
-57 44 -72 11 -16 16 -28 12 -28 -4 0 0 -8 8 -17 8 -10 61 -99 118 -198 57
-99 126 -218 153 -265 28 -47 60 -103 72 -125 32 -58 127 -222 162 -280 55
-92 87 -150 82 -151 -2 -1 3 -10 12 -20 14 -16 67 -106 151 -254 11 -19 39
-66 61 -105 22 -38 40 -72 40 -75 -1 -3 4 -12 11 -20 7 -8 59 -96 116 -195 57
-99 112 -193 124 -210 11 -16 19 -30 17 -30 -5 0 19 -42 50 -87 11 -15 19 -30
19 -34 0 -3 9 -18 19 -32 10 -15 20 -31 21 -37 3 -10 11 -24 55 -95 12 -19 53
-90 91 -158 89 -160 101 -180 162 -285 29 -49 52 -91 52 -95 0 -3 6 -13 14
-21 7 -9 27 -42 44 -73 16 -32 39 -70 49 -85 11 -15 34 -55 52 -88 18 -33 57
-100 86 -150 29 -49 88 -153 132 -230 141 -245 195 -339 211 -365 9 -14 17
-27 17 -30 0 -3 9 -18 19 -35 34 -54 48 -77 124 -209 41 -72 88 -153 104 -181
16 -27 35 -64 43 -81 8 -17 21 -36 29 -44 9 -7 16 -16 16 -20 0 -5 66 -122
146 -262 240 -416 475 -822 485 -838 14 -23 366 -634 417 -725 25 -44 84 -145
130 -225 119 -203 162 -278 162 -285 0 -4 12 -22 26 -40 14 -19 26 -37 26 -42
1 -4 6 -17 13 -28 59 -98 125 -214 125 -221 0 -4 7 -16 17 -26 27 -30 11 -28
-47 7 -30 18 -77 46 -105 60 -27 15 -57 33 -66 41 -8 8 -19 14 -23 14 -8 0
-168 90 -176 99 -3 4 -21 14 -40 25 -29 15 -358 205 -410 236 -37 22 -217 126
-239 137 -77 42 -107 59 -111 63 -3 3 -16 11 -30 19 -14 8 -79 46 -145 84 -66
38 -145 83 -175 100 -30 17 -86 49 -125 72 -38 23 -101 60 -138 81 -38 21 -76
44 -85 49 -10 6 -49 28 -87 49 -39 22 -124 72 -190 111 -66 40 -125 74 -130
76 -12 4 -247 144 -420 249 -103 63 -374 221 -475 277 -25 14 -72 42 -105 62
-81 49 -88 53 -137 79 -24 13 -168 97 -321 185 -153 89 -302 175 -330 191 -29
15 -104 59 -167 96 -63 37 -173 101 -245 142 -71 41 -172 99 -223 129 -52 30
-117 67 -145 82 -29 16 -63 36 -77 45 -14 9 -45 27 -70 40 -25 14 -52 30 -60
36 -8 7 -26 17 -40 24 -14 7 -32 16 -40 21 -79 48 -152 91 -155 91 -5 0 -312
181 -368 216 -21 14 -54 34 -75 45 -20 12 -77 44 -125 72 -48 29 -100 59 -115
67 -31 17 -149 86 -172 100 -8 6 -127 74 -265 154 -137 79 -275 158 -305 176
-79 47 -287 168 -340 198 -25 13 -52 31 -61 38 -8 8 -19 14 -23 14 -4 0 -59
30 -122 67 -63 38 -139 82 -169 98 -30 17 -60 36 -67 43 -7 7 -15 12 -20 12
-6 0 -311 174 -368 210 -8 6 -43 26 -77 45 -35 19 -91 51 -125 71 -35 20 -83
48 -108 61 -25 14 -70 40 -100 58 -70 42 -291 170 -350 203 -69 38 -241 142
-274 165 -17 12 -44 28 -60 37 -56 29 -511 293 -538 311 -14 11 -28 19 -31 19
-2 0 -98 55 -213 121 -115 67 -225 130 -244 141 -19 11 -144 84 -278 162 -134
77 -271 157 -306 176 -34 19 -80 46 -102 59 -21 13 -64 38 -94 54 -30 16 -62
35 -70 41 -8 6 -35 22 -60 35 -25 13 -52 30 -61 37 -8 8 -19 14 -23 14 -4 0
-46 23 -94 51 -48 29 -106 63 -130 76 -23 13 -93 54 -155 90 -62 36 -132 77
-157 90 -49 28 -69 39 -330 194 -96 57 -184 109 -195 115 -11 6 -69 41 -128
78 -60 36 -111 66 -113 66 -2 0 -52 29 -111 64 -60 35 -130 76 -158 91 -27 16
-58 33 -68 39 -16 10 -17 370 -17 7325 0 7088 1 7313 18 7290 10 -13 38 -60
62 -104z"/>
<path d="M27788 20972 c-1683 -2919 -12061 -20893 -12078 -20919 -8 -12 -11
-25 -8 -29 7 -6 1448 821 1459 838 3 5 8 9 10 8 7 -3 59 23 59 30 0 3 16 12
35 19 19 7 35 17 35 22 0 5 6 9 14 9 8 0 22 7 30 16 9 8 16 13 16 9 0 -4 7 1
16 9 8 9 22 16 30 16 8 0 14 5 14 11 0 5 5 7 10 4 6 -3 10 -2 10 4 0 6 11 13
25 17 14 3 25 9 25 13 0 7 27 23 55 32 6 1 19 11 29 21 18 16 32 22 39 16 1
-2 13 7 27 20 22 21 34 26 53 23 4 0 7 3 7 7 0 9 95 64 106 62 4 -1 10 3 13 8
7 12 183 115 1376 804 522 302 952 552 955 556 3 4 12 8 20 10 8 2 17 8 18 13
2 5 10 9 18 9 8 0 14 5 14 11 0 5 4 8 9 4 5 -3 16 2 24 10 9 8 20 15 26 15 6
0 11 5 11 11 0 5 5 7 10 4 6 -3 10 -1 10 5 0 6 4 9 9 6 5 -3 12 1 15 10 3 8
10 12 16 9 5 -3 10 -1 10 6 0 7 3 10 6 6 3 -3 15 3 27 13 11 11 24 17 29 14 4
-3 8 0 8 6 0 6 5 8 10 5 6 -3 10 -1 10 4 0 6 7 11 15 11 8 0 15 5 15 11 0 5 5
7 10 4 6 -3 10 -1 10 5 0 6 4 9 9 6 5 -3 12 1 15 10 3 8 10 12 16 9 5 -3 10
-1 10 6 0 7 3 10 6 6 3 -3 15 3 27 13 11 11 24 17 29 14 4 -3 8 0 8 7 0 7 3
10 6 6 3 -3 14 3 25 14 11 11 24 17 29 14 6 -4 10 -1 10 6 0 7 3 10 6 6 3 -3
14 3 25 14 11 11 24 17 29 14 6 -4 10 -2 10 2 0 5 14 17 30 26 17 10 30 15 30
12 0 -3 10 3 22 15 20 19 33 24 51 21 4 0 7 3 7 9 0 5 14 16 30 25 17 9 30 12
30 8 0 -4 6 0 13 9 11 14 216 133 1572 916 621 358 699 404 703 414 2 4 10 8
18 8 8 0 14 5 14 11 0 5 4 8 9 5 5 -3 14 1 21 9 7 8 19 15 26 15 8 0 14 5 14
11 0 5 5 7 10 4 6 -3 10 -1 10 5 0 6 4 9 9 6 5 -3 12 1 15 10 3 8 10 13 15 10
5 -4 11 -2 13 2 3 9 204 126 1688 982 470 271 857 496 860 500 3 3 20 12 38
19 17 8 32 17 32 22 0 5 11 11 25 15 14 3 25 10 25 14 0 5 16 14 35 21 19 7
35 16 35 20 0 4 16 13 35 20 19 7 35 16 35 19 0 7 52 33 59 30 2 -1 7 2 10 7
5 7 177 113 274 168 358 204 2144 1241 2148 1247 3 5 8 9 10 8 7 -3 59 23 59
30 0 3 16 12 35 19 19 7 35 16 35 21 0 4 11 11 25 14 14 4 25 11 25 17 0 6 5
7 10 4 6 -3 10 -1 10 4 0 6 7 11 15 11 8 0 15 5 15 11 0 5 5 7 10 4 7 -4 10
2548 10 7649 0 4211 -1 7656 -2 7656 -2 -1 -537 -927 -1190 -2058z m1032
-5844 l0 -7303 -88 -49 c-48 -27 -105 -61 -127 -76 -36 -24 -110 -68 -215
-127 -36 -21 -163 -95 -446 -259 -89 -52 -167 -94 -173 -94 -6 0 -11 -4 -11
-9 0 -5 -10 -13 -22 -17 -13 -3 -30 -12 -38 -19 -8 -7 -46 -29 -85 -50 -38
-21 -72 -41 -75 -44 -3 -3 -23 -15 -45 -26 -22 -10 -46 -24 -54 -30 -7 -5 -42
-26 -76 -45 -59 -33 -117 -66 -435 -250 -69 -40 -197 -114 -285 -165 -88 -51
-189 -110 -225 -132 -76 -47 -252 -150 -295 -173 -16 -9 -41 -23 -55 -32 -14
-8 -70 -42 -124 -74 -55 -33 -116 -69 -135 -81 -20 -12 -70 -41 -111 -65 -41
-24 -83 -47 -92 -53 -30 -18 -260 -150 -363 -209 -55 -31 -107 -61 -115 -66
-25 -15 -279 -163 -336 -195 -29 -16 -110 -63 -181 -104 -624 -362 -744 -431
-788 -456 -43 -23 -240 -138 -285 -165 -8 -5 -87 -50 -175 -101 -88 -51 -185
-109 -216 -130 -30 -21 -72 -47 -92 -58 -20 -12 -52 -30 -69 -40 -46 -27 -326
-188 -433 -250 -49 -28 -97 -55 -105 -61 -13 -8 -80 -47 -175 -101 -16 -9
-112 -64 -212 -122 -100 -58 -197 -113 -215 -124 -18 -10 -40 -23 -48 -29 -8
-6 -40 -25 -70 -41 -30 -17 -90 -51 -133 -76 -43 -26 -80 -47 -82 -47 -2 0
-34 -18 -72 -41 -83 -50 -80 -48 -173 -101 -41 -24 -83 -47 -92 -53 -9 -5 -29
-17 -45 -26 -15 -9 -100 -58 -188 -109 -88 -51 -180 -104 -205 -118 -25 -14
-62 -36 -82 -49 -21 -12 -42 -23 -48 -23 -5 0 -10 -4 -10 -9 0 -5 -8 -11 -17
-15 -23 -7 -106 -53 -158 -87 -22 -14 -68 -41 -101 -60 -134 -74 -251 -144
-294 -174 -25 -18 -57 -38 -72 -46 -15 -8 -73 -41 -130 -74 -56 -33 -115 -67
-130 -75 -15 -8 -117 -67 -225 -130 -109 -63 -207 -120 -218 -126 -11 -6 -105
-61 -210 -121 -376 -218 -531 -307 -567 -327 -20 -12 -62 -36 -95 -55 -56 -33
-79 -46 -160 -92 -20 -11 -52 -31 -72 -45 -20 -13 -40 -24 -46 -24 -6 0 -16
-5 -23 -12 -7 -7 -36 -26 -66 -43 -110 -61 -503 -289 -561 -325 -33 -20 -85
-50 -115 -67 -85 -47 -276 -160 -307 -182 -16 -10 -100 -60 -188 -110 -88 -50
-167 -96 -175 -101 -8 -5 -44 -26 -80 -46 -36 -21 -128 -74 -205 -119 -77 -45
-166 -96 -199 -114 l-58 -34 25 44 c84 149 123 216 235 409 69 118 138 239
155 270 16 30 33 60 37 65 4 6 43 71 85 145 43 74 94 162 113 195 19 33 48 85
65 115 17 30 45 79 64 108 18 29 33 54 33 57 0 2 14 28 31 57 17 29 83 143
147 253 63 110 156 270 205 355 50 85 115 198 145 250 30 52 64 111 75 130 37
63 122 211 137 238 16 30 85 148 100 172 17 28 262 455 293 510 17 30 42 73
56 95 13 22 38 65 54 95 16 30 35 62 41 70 7 8 18 26 24 40 7 14 18 34 25 45
7 11 31 54 55 95 23 41 47 82 52 90 5 8 51 87 102 175 50 88 107 187 126 220
19 33 42 74 52 90 30 53 81 140 90 155 5 8 59 103 121 210 61 107 119 207 130
222 10 15 19 32 19 38 0 6 5 16 11 23 6 7 60 98 120 202 60 105 114 197 119
205 8 13 103 179 192 335 57 99 83 144 251 435 94 162 195 338 225 390 30 52
66 111 78 131 13 19 24 38 24 41 0 3 44 82 98 175 54 92 132 226 173 297 41
71 85 148 98 170 25 44 86 149 133 231 16 28 33 57 38 65 13 21 109 188 133
230 15 28 174 302 331 573 20 36 202 352 250 435 17 30 36 61 41 71 6 9 63
109 128 221 65 113 122 212 127 220 33 53 130 223 130 226 0 2 25 44 55 95 30
50 55 93 55 95 0 2 31 56 69 121 80 137 274 472 303 523 121 212 164 286 170
288 5 2 8 8 8 14 0 5 16 37 36 71 20 34 78 134 129 222 51 88 116 201 145 250
53 91 58 100 124 215 20 36 41 72 46 80 11 17 63 107 92 160 11 19 43 75 71
123 29 49 61 105 73 125 11 20 65 114 119 207 95 163 136 235 181 314 11 20
71 124 133 231 63 107 121 209 131 226 10 16 51 88 92 160 86 148 367 634 410
709 41 71 42 73 87 148 23 38 41 70 41 72 0 2 63 113 141 247 78 134 153 263
166 288 30 53 143 247 218 375 29 50 65 113 80 140 15 28 37 66 49 85 13 19
58 98 102 175 43 77 82 142 86 143 4 2 8 7 8 12 0 9 19 42 160 285 51 88 104
180 118 205 13 25 55 97 92 160 37 63 75 129 84 145 9 17 27 48 40 70 13 22
39 68 57 103 19 34 37 62 41 62 5 0 8 6 8 13 0 6 15 35 32 62 17 28 45 75 61
105 16 30 34 60 39 67 5 7 17 27 27 45 9 18 43 78 75 133 33 55 70 120 84 145
14 25 32 56 42 70 9 14 20 32 23 40 4 8 11 22 17 30 5 8 44 76 86 150 43 74
103 179 136 233 32 54 58 100 58 102 0 2 21 39 46 82 26 43 60 103 77 133 16
30 36 62 43 71 8 8 14 23 14 31 0 9 7 22 16 29 9 7 19 20 23 29 5 13 76 140
101 180 7 12 118 203 200 345 9 17 40 71 69 120 28 50 56 97 61 105 14 23 149
259 178 310 14 25 46 81 72 125 26 44 93 161 150 260 56 99 112 196 124 215
12 19 51 86 87 148 35 62 69 120 74 130 6 9 80 138 165 285 85 148 169 292
185 321 17 29 59 103 95 165 36 62 74 129 86 149 11 20 80 141 154 267 73 127
187 325 254 442 67 117 122 213 124 213 1 0 2 -3286 2 -7302z"/>
</g>
</svg>
